<svg width="135" height="195" viewBox="0 0 135 195" fill="none" xmlns="http://www.w3.org/2000/svg">
<path d="M61.5537 159.724H141.078V192.5H4.21637V160.893L77.6264 96.6925C77.6277 96.6916 77.6291 96.6906 77.6303 96.6897C85.8892 89.5312 91.7523 83.4237 95.0412 78.3934C98.4061 73.2471 100.085 67.4973 100.085 61.207C100.085 54.1763 97.5434 48.1684 92.5068 43.3329C87.3701 38.4016 80.2212 36.0974 71.4145 36.0974C62.8101 36.0974 55.587 38.2052 49.9563 42.6272C45.0862 46.4167 41.7625 51.2932 40.0074 57.1885H2.97693C4.76981 46.9721 8.42376 38.0106 13.9114 30.2621C20.0665 21.6464 28.0676 14.8683 37.9564 9.92254C47.9962 4.99225 59.406 2.5 72.2362 2.5C85.4459 2.5 97.0381 4.9977 107.071 9.92615L107.086 9.93365L107.101 9.94088C117.139 14.6956 125.015 21.4453 130.788 30.1938L130.794 30.203L130.8 30.2123C136.532 38.7227 139.435 48.7484 139.435 60.3852C139.435 72.7059 136.101 83.3406 129.49 92.3916C122.685 101.522 113.878 110.609 103.037 119.643L103.036 119.644L60.0321 155.526L55.0003 159.724H61.5537Z" fill="#141414" stroke="#808080" stroke-width="5"/>
</svg>
