<svg width="136" height="195" viewBox="0 0 136 195" fill="none" xmlns="http://www.w3.org/2000/svg">
<path d="M40.9524 50.8636H4.87019C8.76801 36.6276 16.2869 25.1979 27.4253 16.4809C39.2536 7.22399 54.6155 2.5 73.7102 2.5C85.5745 2.5 96.2317 4.67948 105.722 8.99338L105.746 9.00406L105.77 9.01423C115.418 13.1491 123.02 19.1455 128.65 26.9932L128.659 27.007L128.669 27.0205C134.417 34.7966 137.325 44.0355 137.325 54.8481C137.325 63.5238 135.037 71.0918 130.505 77.6388C125.991 84.1573 119.439 89.0695 110.704 92.3236L104.241 94.7313L110.816 96.8131C121.123 100.077 128.788 105.516 133.989 113.065C139.257 120.713 141.885 129.184 141.885 138.542C141.885 149.902 138.882 159.492 132.966 167.436L132.957 167.449L132.947 167.463C127.147 175.481 119.193 181.661 108.998 185.982C98.7853 190.309 87.1262 192.5 73.9784 192.5C53.2241 192.5 36.8769 187.841 24.708 178.761C13.235 170.032 6.01567 158.355 3.05205 143.6H40.4574C42.7773 148.815 46.7482 152.843 52.2339 155.675L52.2474 155.682L52.2611 155.688C58.3735 158.745 65.457 160.231 73.442 160.231C81.5021 160.231 88.5048 158.354 94.327 154.477C100.677 150.373 103.715 143.812 103.715 135.323C103.715 127.641 100.701 121.656 94.5869 117.773C88.7408 113.884 81.4607 112.025 72.9054 112.025H51.6743V81.0975H71.2959C79.54 81.0975 86.4481 79.1263 91.7999 74.9639L91.8211 74.9474L91.8419 74.9304C97.2454 70.5277 99.9595 64.6549 99.9595 57.5306C99.9595 49.9206 97.1789 43.9963 91.3827 40.2586C85.8831 36.5354 78.9501 34.7686 70.7595 34.7686C63.2799 34.7686 56.7606 36.3575 51.3128 39.6573C46.4366 42.4502 42.9312 46.1834 40.9524 50.8636Z" fill="#141414" stroke="#808080" stroke-width="5"/>
</svg>
