<svg width="14" height="7" viewBox="0 0 14 7" fill="none" xmlns="http://www.w3.org/2000/svg">
<path d="M7.92907 6.57973L13.968 0.145906C13.9838 0.133879 13.9946 0.116512 13.9985 0.0970699C14.0023 0.077628 13.9989 0.0574512 13.9889 0.0403322C13.9789 0.0232133 13.963 0.010332 13.9442 0.00411013C13.9254 -0.00211176 13.905 -0.00124579 13.8867 0.00654561H0.113253C0.0950305 -0.00124579 0.0745892 -0.00211176 0.0557726 0.00411013C0.0369559 0.010332 0.0210601 0.0232133 0.011074 0.0403322C0.001088 0.0574512 -0.0023004 0.077628 0.00154573 0.0970699C0.00539187 0.116512 0.0162077 0.133879 0.0319596 0.145906L6.07093 6.57973C6.19034 6.70627 6.33434 6.80707 6.4941 6.87597C6.65386 6.94487 6.82602 6.98041 7 6.98041C7.17398 6.98041 7.34614 6.94487 7.5059 6.87597C7.66566 6.80707 7.80966 6.70627 7.92907 6.57973Z" fill="white"/>
</svg>
