<svg width="19" height="20" viewBox="0 0 19 20" fill="none" xmlns="http://www.w3.org/2000/svg">
<path d="M9.28127 20C10.4229 20 11.3612 19.1301 11.47 18.017H7.09256C7.20131 19.1301 8.13963 20 9.28127 20Z" fill="white"/>
<path d="M16.9342 13.5882C16.2633 13.5882 15.7195 13.0444 15.7195 12.3735V8.35574C15.7195 5.50652 13.8685 3.08996 11.3035 2.24203C11.3106 2.17324 11.3142 2.10352 11.3142 2.03289C11.3142 0.911953 10.4022 0 9.28129 0C8.16036 0 7.2484 0.911953 7.2484 2.03289C7.2484 2.10352 7.25207 2.17324 7.2591 2.24203C4.69414 3.08996 2.84317 5.50652 2.84317 8.35574V12.3735C2.84317 13.0444 2.2993 13.5882 1.62844 13.5882C0.729063 13.5882 0 14.3173 0 15.2167C0 16.1161 0.729102 16.8452 1.62844 16.8452H16.9342C17.8336 16.8452 18.5626 16.1161 18.5626 15.2167C18.5626 14.3173 17.8335 13.5882 16.9342 13.5882ZM9.28129 1.17188C9.73653 1.17188 10.1101 1.52703 10.1401 1.97477C9.85915 1.9373 9.57254 1.91762 9.28129 1.91762C8.99004 1.91762 8.70344 1.9373 8.42247 1.97477C8.45247 1.52703 8.82606 1.17188 9.28129 1.17188Z" fill="white"/>
</svg>
