<svg width="27" height="27" viewBox="0 0 27 27" fill="none" xmlns="http://www.w3.org/2000/svg">
<path d="M26.6667 13.3333C26.6667 20.6973 20.6973 26.6667 13.3333 26.6667C5.96933 26.6667 0 20.6973 0 13.3333C0 5.96933 5.96933 0 13.3333 0C20.6973 0 26.6667 5.96933 26.6667 13.3333ZM24 13.3333C24 10.5044 22.8762 7.79125 20.8758 5.79086C18.8754 3.79047 16.1623 2.66667 13.3333 2.66667C10.5044 2.66667 7.79125 3.79047 5.79086 5.79086C3.79047 7.79125 2.66667 10.5044 2.66667 13.3333C2.66667 16.1623 3.79047 18.8754 5.79086 20.8758C7.79125 22.8762 10.5044 24 13.3333 24C16.1623 24 18.8754 22.8762 20.8758 20.8758C22.8762 18.8754 24 16.1623 24 13.3333ZM12 21.3333V12H14.6667V21.3333H12ZM13.3333 9.66667C13.1158 9.6688 12.9 9.6269 12.6991 9.5435C12.4981 9.46009 12.3161 9.3369 12.164 9.18133C12.0034 9.02994 11.8762 8.84665 11.7905 8.64322C11.7049 8.43978 11.6627 8.22069 11.6667 8C11.6667 7.536 11.8307 7.14133 12.1627 6.81867C12.492 6.496 12.8827 6.33333 13.3333 6.33333C13.7827 6.33333 14.1733 6.496 14.5027 6.81867C14.8333 7.14133 15 7.536 15 8C15 8.464 14.8347 8.85867 14.5027 9.18133C14.3506 9.3369 14.1685 9.46009 13.9676 9.5435C13.7666 9.6269 13.5509 9.6688 13.3333 9.66667Z" fill="white"/>
</svg>
